<svg width="128" height="128" viewBox="0 0 128 128" fill="none" xmlns="http://www.w3.org/2000/svg">
  <defs>
    <radialGradient id="coreGlow" cx="0" cy="0" r="1" gradientUnits="userSpaceOnUse" gradientTransform="translate(64 64) rotate(90) scale(54)">
      <stop offset="0" stop-color="#FFFFFF"/>
      <stop offset="0.72" stop-color="#F9FDFF"/>
      <stop offset="1" stop-color="#DFF7FF"/>
    </radialGradient>
    <linearGradient id="ring" x1="18" y1="16" x2="112" y2="112" gradientUnits="userSpaceOnUse">
      <stop offset="0" stop-color="#0A1E48"/>
      <stop offset="0.5" stop-color="#0F7FE4"/>
      <stop offset="1" stop-color="#0A1E48"/>
    </linearGradient>
    <radialGradient id="lens" cx="0" cy="0" r="1" gradientUnits="userSpaceOnUse" gradientTransform="translate(64 66) scale(21)">
      <stop offset="0" stop-color="#F8FEFF"/>
      <stop offset="0.18" stop-color="#8FE7FF"/>
      <stop offset="0.45" stop-color="#1A97F0"/>
      <stop offset="0.78" stop-color="#174883"/>
      <stop offset="1" stop-color="#101622"/>
    </radialGradient>
    <linearGradient id="cameraBody" x1="36" y1="38" x2="90" y2="88" gradientUnits="userSpaceOnUse">
      <stop offset="0" stop-color="#0D1117"/>
      <stop offset="0.55" stop-color="#1B2533"/>
      <stop offset="1" stop-color="#090C12"/>
    </linearGradient>
    <linearGradient id="metal" x1="50" y1="26" x2="77" y2="40" gradientUnits="userSpaceOnUse">
      <stop offset="0" stop-color="#C9D0DA"/>
      <stop offset="0.4" stop-color="#6E7785"/>
      <stop offset="1" stop-color="#F8FAFD"/>
    </linearGradient>
    <linearGradient id="grip" x1="54" y1="80" x2="74" y2="106" gradientUnits="userSpaceOnUse">
      <stop offset="0" stop-color="#FFD78A"/>
      <stop offset="0.45" stop-color="#F2A34C"/>
      <stop offset="1" stop-color="#B7641B"/>
    </linearGradient>
    <filter id="softShadow" x="22" y="20" width="84" height="89" filterUnits="userSpaceOnUse" color-interpolation-filters="sRGB">
      <feDropShadow dx="0" dy="5" stdDeviation="5" flood-color="#07101B" flood-opacity="0.24"/>
    </filter>
    <filter id="ringGlow" x="5" y="5" width="118" height="118" filterUnits="userSpaceOnUse" color-interpolation-filters="sRGB">
      <feGaussianBlur stdDeviation="4"/>
    </filter>
  </defs>

  <ellipse cx="64" cy="117" rx="18" ry="4.5" fill="#0C1A2B" fill-opacity="0.14"/>

  <circle cx="64" cy="64" r="48" stroke="#28D9FF" stroke-opacity="0.34" stroke-width="5" filter="url(#ringGlow)"/>
  <circle cx="64" cy="64" r="49" fill="url(#coreGlow)"/>
  <circle cx="64" cy="64" r="49" stroke="url(#ring)" stroke-width="5"/>

  <g filter="url(#softShadow)">
    <path d="M42 43C42 39.6863 44.6863 37 48 37H80C83.3137 37 86 39.6863 86 43V75C86 80.5228 81.5228 85 76 85H52C46.4772 85 42 80.5228 42 75V43Z" fill="url(#cameraBody)"/>
    <path d="M37 47C37 42.5817 40.5817 39 45 39H52V84H45C40.5817 84 37 80.4183 37 76V47Z" fill="#11161F"/>
    <path d="M76 39H83C87.4183 39 91 42.5817 91 47V76C91 80.4183 87.4183 84 83 84H76V39Z" fill="#151B25"/>
    <path d="M52 33.8C52 31.149 54.149 29 56.8 29H69.2C71.851 29 74 31.149 74 33.8V39H52V33.8Z" fill="url(#metal)"/>
    <path d="M57 27.5H71.5C73.9853 27.5 76 29.5147 76 32V34H52.5L52.5 32C52.5 29.5147 54.5147 27.5 57 27.5Z" fill="#AEB6C2" fill-opacity="0.42"/>
    <circle cx="49" cy="49" r="5.8" fill="#61D5FF" fill-opacity="0.6"/>
    <circle cx="80" cy="48.5" r="4.2" fill="#EAF6FF" fill-opacity="0.42"/>
    <circle cx="64" cy="66" r="22" fill="#121A25"/>
    <circle cx="64" cy="66" r="18.5" fill="url(#lens)"/>
    <circle cx="64" cy="66" r="13" stroke="#5FD8FF" stroke-opacity="0.4" stroke-width="1.5"/>
    <circle cx="64" cy="66" r="7.5" fill="#B8F5FF" fill-opacity="0.9"/>
    <circle cx="64" cy="66" r="3" fill="#FFFFFF"/>
    <path d="M55 79C55 77.8954 55.8954 77 57 77H71C72.1046 77 73 77.8954 73 79V88.5C73 90.9853 70.9853 93 68.5 93H59.5C57.0147 93 55 90.9853 55 88.5V79Z" fill="url(#grip)"/>
    <path d="M59 81.5L63.4 86.4L67.5 80.8L70.2 86.6L68.5 92.4H59.7L58 86.9L59 81.5Z" fill="#FFF4E2" fill-opacity="0.74"/>
  </g>
</svg>
